<?xml version="1.0" encoding="UTF-8"?>
<!DOCTYPE svg PUBLIC "-//W3C//DTD SVG 1.1//EN" "http://www.w3.org/Graphics/SVG/1.1/DTD/svg11.dtd">
<!-- Creator: CorelDRAW 2020 (64-Bit) -->
<svg xmlns="http://www.w3.org/2000/svg" xml:space="preserve" width="2.2786mm" height="4.2332mm" version="1.1" style="shape-rendering:geometricPrecision; text-rendering:geometricPrecision; image-rendering:optimizeQuality; fill-rule:evenodd; clip-rule:evenodd"
viewBox="0 0 11.3 20.99"
 xmlns:xlink="http://www.w3.org/1999/xlink"
 xmlns:xodm="http://www.corel.com/coreldraw/odm/2003">
 <defs>
  <style type="text/css">
   <![CDATA[
    .fil0 {fill:#FEFEFE}
   ]]>
  </style>
 </defs>
 <g id="Capa_x0020_1">
  <metadata id="CorelCorpID_0Corel-Layer"/>
  <g id="_1682287917536">
   <path class="fil0" d="M3.39 4.5c0.04,0.27 -0.04,0.6 -0.04,0.89l0 2.62c-0.45,0.11 -2.71,0.03 -3.35,0.03l0 3.76 3.34 0 0 9.18 4.11 0.01 0 -9.18 3.06 0 0.59 -3.8 -3.62 -0.01c-0.07,-0.36 -0.03,-2.71 0.05,-3.07 0.21,-0.91 1.02,-1.52 1.74,-1.41 0.21,-0.13 1.75,-0.06 1.97,-0.06l0 -3.16 -0.14 -0.11c-0.68,0.08 -3.49,-0.71 -5.43,0.4 -0.67,0.38 -1.18,0.85 -1.58,1.5 -0.34,0.55 -0.77,1.67 -0.7,2.42l0 -0.01z"/>
   <path class="fil0" d="M0 8.04c0.64,0 2.9,0.08 3.35,-0.03l0 -2.62c0,-0.29 0.07,-0.62 0.04,-0.89 -0.16,0.09 -0.07,3.07 -0.08,3.49l-3.31 0.06 0 -0.01z"/>
   <path class="fil0" d="M9.27 3.53c0.16,0.02 0.77,-0.03 1.02,-0.03 0.34,0 0.67,0.02 1.02,0.02l-0.01 -3.32 -0.19 -0.01 0.14 0.11 0 3.16c-0.22,0 -1.76,-0.07 -1.97,0.06l-0.01 0.01z"/>
  </g>
 </g>
</svg>
