<?xml version="1.0" encoding="UTF-8"?>
<!DOCTYPE svg PUBLIC "-//W3C//DTD SVG 1.1//EN" "http://www.w3.org/Graphics/SVG/1.1/DTD/svg11.dtd">
<!-- Creator: CorelDRAW 2020 (64-Bit) -->
<svg xmlns="http://www.w3.org/2000/svg" xml:space="preserve" width="4.2314mm" height="4.2334mm" version="1.1" style="shape-rendering:geometricPrecision; text-rendering:geometricPrecision; image-rendering:optimizeQuality; fill-rule:evenodd; clip-rule:evenodd"
viewBox="0 0 236.45 236.57"
 xmlns:xlink="http://www.w3.org/1999/xlink"
 xmlns:xodm="http://www.corel.com/coreldraw/odm/2003">
 <defs>
  <style type="text/css">
   <![CDATA[
    .fil0 {fill:#FEFEFE}
   ]]>
  </style>
 </defs>
 <g id="Capa_x0020_1">
  <metadata id="CorelCorpID_0Corel-Layer"/>
  <g id="_1682285796064">
   <path class="fil0" d="M21.55 159.49c-1.13,-16.45 -0.85,-79.59 1.04,-95.62 1.91,-16.18 6.63,-24.5 15.95,-32.19 16.84,-13.93 62.56,-10.23 86.42,-10.46 27.31,-0.25 63.72,-3.28 79.67,17.23 8.05,10.34 9.49,22.99 10.24,38.81 0.91,18.77 1.08,77.88 -0.96,95.2 -3.82,32.62 -22.53,41.05 -54.34,42.54 -17.32,0.81 -80.19,0.87 -95.82,-1.12 -15.29,-1.95 -25.35,-6.91 -32.16,-16.03 -8.49,-11.37 -8.95,-21.96 -10.09,-38.35l0.04 -0.01zm214.48 -2.47c0.64,-19.39 0.39,-39.23 0.29,-58.68 -0.19,-35.36 1.06,-67.48 -31.27,-87.48 -13.99,-8.66 -30.33,-9.86 -48.57,-10.42 -19.5,-0.6 -39.12,-0.45 -58.66,-0.37 -16.73,0.08 -38.95,-0.13 -53.84,4.9 -7.76,2.63 -13.62,6.25 -19.2,10.46 -19.94,14.99 -23.67,38.66 -24.4,63.78 -0.58,19.68 -0.32,39.6 -0.27,59.3 0.09,34.51 -0.68,68.4 31.52,87.21 15.62,9.13 28.72,9.78 48.29,10.38 19.5,0.59 39.12,0.46 58.68,0.39 34.76,-0.16 66.96,0.67 86.79,-30.96 8.87,-14.14 10.03,-29.73 10.67,-48.48l-0.02 -0.03z"/>
   <path class="fil0" d="M79.08 123.05c-3.07,-22.93 14.45,-41.41 34.17,-43.84 23.51,-2.89 42.15,14.26 44.19,34.84 4.38,44.25 -54.24,59.13 -73.49,23.48 -2.49,-4.61 -4.09,-8.74 -4.84,-14.47l-0.02 0zm32.54 -65.01c-15.69,2.05 -25.06,7.18 -36,16.88 -1.54,1.37 -2.3,2.72 -3.73,4.33 -9.16,10.13 -16.13,27.93 -13.96,46.01 3.74,31.19 31.89,57.47 67.55,53.24 14.66,-1.74 25.62,-7.47 35.34,-17.15 11.96,-11.92 20.31,-28.9 17.64,-50.37 -2.39,-19.1 -11.79,-30.75 -21.32,-39.18 -10.22,-9.06 -27.74,-16.03 -45.5,-13.74l-0.02 -0.02z"/>
   <path class="fil0" d="M178.41 41.44c-19.93,5.59 -10.27,32.18 6.58,27.28 18.87,-5.5 9.62,-31.85 -6.58,-27.28z"/>
  </g>
 </g>
</svg>
