<?xml version="1.0" encoding="UTF-8"?>
<!DOCTYPE svg PUBLIC "-//W3C//DTD SVG 1.1//EN" "http://www.w3.org/Graphics/SVG/1.1/DTD/svg11.dtd">
<!-- Creator: CorelDRAW 2020 (64-Bit) -->
<svg xmlns="http://www.w3.org/2000/svg" xml:space="preserve" width="5.1962mm" height="4.2334mm" version="1.1" style="shape-rendering:geometricPrecision; text-rendering:geometricPrecision; image-rendering:optimizeQuality; fill-rule:evenodd; clip-rule:evenodd"
viewBox="0 0 78.55 63.99"
 xmlns:xlink="http://www.w3.org/1999/xlink"
 xmlns:xodm="http://www.corel.com/coreldraw/odm/2003">
 <defs>
  <style type="text/css">
   <![CDATA[
    .fil0 {fill:#FEFEFE}
   ]]>
  </style>
 </defs>
 <g id="Capa_x0020_1">
  <metadata id="CorelCorpID_0Corel-Layer"/>
  <path class="fil0" d="M69.38 10.05c0.52,-0.18 1.82,-1.3 2.28,-1.67 2.36,-1.93 3.56,-4.35 4.77,-7.18 -2.73,1.59 -5.76,2.76 -8.91,3.59 -1.75,0.46 -1.59,0.01 -2.63,-0.88 -5.12,-4.42 -13.24,-5.32 -19,-1.49 -6.17,4.1 -8.24,9.32 -7.32,17.38 -11.76,-0.62 -22.45,-5.56 -30.24,-13.54 -0.53,-0.54 -1.08,-0.94 -1.53,-1.53 -0.38,-0.5 -1.03,-1.29 -1.45,-1.67 -0.56,0.67 -1.07,1.89 -1.34,2.69 -2.34,7.12 0.17,14.59 6.15,18.74 -3.31,-0.02 -4.6,-1.07 -7.17,-1.98 0.14,7.14 3.91,12.65 10.12,15.15 0.82,0.33 1.87,0.55 2.55,0.91 -2.8,0.55 -4.02,0.54 -6.97,0.32 0.49,1.84 1.39,3.23 2.27,4.51 2.99,4.34 7.27,6.02 12.81,6.64 -0.18,0.03 -1.79,1.29 -2.19,1.55 -2.35,1.59 -5.22,2.9 -7.93,3.76 -6.29,1.99 -8.14,1.29 -13.66,1.46 1.05,0.9 3.49,2.08 5.01,2.83 5.5,2.74 12.93,4.28 19.25,4.33 9.58,0.08 17.93,-2.44 24.79,-6.72 0.84,-0.52 1.62,-1.02 2.36,-1.6 0.85,-0.66 1.42,-1.12 2.23,-1.72 0.57,-0.42 0.53,-0.48 1.03,-0.95 1.23,-1.15 1.35,-1.05 3.09,-2.86 8.49,-8.89 12.98,-21.54 12.78,-34.26 0.79,-0.37 3.84,-3.17 4.44,-3.8l3.56 -4.36c-0.65,0.04 -3.34,1.11 -4.35,1.41 -1.38,0.41 -3.39,0.91 -4.82,0.93l-0.01 -0.01z"/>
 </g>
</svg>
